<?xml version="1.0" standalone="no"?>
<!DOCTYPE svg PUBLIC "-//W3C//DTD SVG 20010904//EN"
 "http://www.w3.org/TR/2001/REC-SVG-20010904/DTD/svg10.dtd">
<svg version="1.0" xmlns="http://www.w3.org/2000/svg"
 width="1600.000000pt" height="1600.000000pt" viewBox="0 0 1600.000000 1600.000000"
 preserveAspectRatio="xMidYMid meet">
<metadata>
Created by potrace 1.14, written by Peter Selinger 2001-2017
</metadata>
<g transform="translate(0.000000,1600.000000) scale(0.100000,-0.100000)"
fill="#000000" stroke="none">
<path d="M7715 15994 c-1331 -50 -2575 -411 -3725 -1082 -304 -177 -742 -482
-1015 -707 -281 -231 -625 -559 -860 -820 -799 -884 -1385 -1917 -1729 -3045
-446 -1460 -469 -3045 -66 -4520 127 -466 320 -976 530 -1405 833 -1698 2231
-3046 3948 -3806 619 -275 1364 -492 2002 -584 l175 -25 1025 0 1025 0 175 25
c638 92 1383 309 2002 584 1717 760 3115 2108 3948 3806 894 1823 1062 3968
464 5925 -126 414 -300 852 -486 1223 -566 1133 -1369 2098 -2373 2852 -1216
914 -2668 1456 -4190 1565 -150 10 -701 20 -850 14z m3658 -4060 c29 -10 59
-22 67 -28 8 -7 29 -18 45 -26 50 -25 141 -122 169 -181 26 -56 43 -119 52
-194 6 -50 -22 -175 -52 -236 -37 -74 -116 -153 -192 -192 -75 -37 -210 -72
-251 -64 -134 28 -161 38 -234 87 -51 34 -69 52 -108 107 -27 37 -35 42 -82
48 -29 3 -1171 5 -2539 3 l-2488 -3 -23 -25 c-21 -23 -107 -165 -107 -177 0
-3 -8 -17 -19 -31 -18 -26 -35 -55 -89 -152 -14 -25 -95 -166 -182 -315 -86
-148 -168 -290 -182 -315 -41 -73 -68 -120 -143 -249 -11 -18 -71 -122 -134
-230 -62 -108 -119 -203 -126 -211 -7 -8 -32 -58 -57 -111 -25 -53 -65 -127
-90 -165 -24 -38 -66 -107 -93 -154 -26 -47 -58 -98 -70 -115 -21 -28 -111
-180 -160 -270 -39 -71 -50 -90 -56 -95 -4 -3 -15 -23 -26 -45 -10 -22 -38
-71 -61 -110 -52 -84 -40 -65 -150 -255 -49 -85 -99 -171 -110 -190 -35 -56
-29 -91 32 -189 79 -128 156 -259 156 -268 1 -4 23 -44 50 -88 27 -44 61 -102
76 -129 14 -27 32 -56 40 -64 8 -7 14 -17 14 -22 0 -5 31 -61 70 -125 38 -64
70 -117 70 -119 0 -2 46 -81 102 -177 55 -96 130 -226 166 -289 36 -63 80
-137 97 -165 18 -27 43 -70 57 -95 14 -25 64 -110 110 -190 46 -80 87 -152 91
-160 4 -8 13 -24 19 -34 26 -39 74 -122 86 -146 14 -28 25 -45 65 -107 15 -24
27 -46 27 -49 0 -4 17 -34 38 -68 21 -34 42 -68 45 -76 4 -8 16 -28 27 -45 11
-16 23 -37 27 -45 8 -19 92 -163 115 -198 10 -15 22 -36 27 -47 5 -11 38 -69
73 -130 35 -60 67 -117 71 -125 4 -8 13 -24 20 -35 69 -115 91 -147 107 -155
12 -7 807 -10 2301 -10 l2282 0 76 78 c42 43 94 86 116 97 22 10 52 24 67 32
74 38 260 31 353 -13 103 -48 165 -110 229 -228 37 -69 38 -73 40 -181 2 -152
-28 -228 -133 -338 -69 -72 -153 -113 -263 -129 -168 -24 -300 22 -413 145
-41 43 -76 71 -97 78 -20 5 -948 9 -2429 9 l-2397 0 -115 197 c-63 109 -125
216 -137 238 -25 44 -105 182 -120 205 -6 8 -14 24 -19 35 -7 16 -230 404
-261 455 -5 8 -22 40 -38 70 -63 119 -96 178 -142 255 -75 125 -262 450 -300
520 -26 49 -287 500 -309 535 -8 14 -25 43 -36 65 -12 22 -47 84 -78 137 -31
53 -57 99 -57 102 0 2 -22 40 -48 83 -27 43 -100 166 -162 273 -63 107 -157
269 -210 360 -53 91 -99 173 -103 183 -8 21 13 71 53 132 15 22 44 72 64 110
21 39 53 97 73 130 19 33 45 78 57 100 13 22 57 99 98 170 41 72 77 137 81
145 4 8 16 29 27 45 11 17 23 37 27 45 4 8 14 26 23 40 54 80 80 125 85 152 4
17 20 53 36 80 16 27 29 51 29 54 0 7 49 81 91 139 20 28 50 74 65 102 16 29
68 121 117 203 48 83 87 155 87 161 0 15 27 61 88 150 28 43 52 80 52 82 0 2
25 49 57 103 31 55 68 122 83 149 15 28 48 84 73 125 25 41 56 95 68 120 12
25 86 155 164 290 78 135 145 252 148 260 4 8 11 22 17 30 47 73 120 200 120
209 0 6 4 11 9 11 5 0 13 10 17 22 3 11 56 106 116 210 l110 188 2647 1 c1455
0 2664 3 2686 7 30 6 39 12 37 25 -7 43 173 180 263 200 51 12 199 6 248 -9z
m-1155 -1399 c109 -33 241 -136 287 -225 59 -114 73 -264 36 -373 -79 -230
-314 -370 -539 -323 -105 22 -187 71 -269 161 l-68 75 -1546 0 c-1498 0 -1546
-1 -1563 -19 -15 -17 -105 -168 -178 -301 -17 -30 -36 -62 -43 -70 -6 -8 -33
-58 -60 -110 -26 -52 -65 -120 -85 -150 -20 -30 -54 -86 -75 -125 -20 -38 -62
-110 -92 -160 -30 -49 -100 -169 -155 -265 -55 -96 -124 -215 -153 -265 -29
-49 -64 -110 -77 -135 -14 -25 -54 -92 -88 -150 -35 -58 -63 -116 -63 -130 0
-14 41 -92 90 -175 49 -82 118 -199 153 -260 34 -60 93 -162 130 -225 37 -63
150 -257 250 -430 305 -524 384 -661 394 -681 3 -8 16 -32 29 -54 l22 -40
1413 -3 1413 -2 22 24 c145 156 199 191 324 206 174 22 309 -25 423 -147 71
-75 95 -118 116 -210 63 -269 -122 -537 -396 -572 -192 -24 -340 42 -456 203
l-21 30 -1509 -2 c-830 -1 -1526 1 -1547 4 -43 7 -33 -6 -151 199 -153 265
-270 467 -411 710 -84 143 -154 265 -156 270 -2 6 -23 42 -45 80 -43 72 -377
650 -469 810 -29 50 -73 124 -98 166 -26 42 -47 86 -47 98 0 12 70 141 155
287 85 146 155 267 155 270 0 4 36 65 77 130 7 10 21 35 31 54 18 36 64 113
202 345 76 128 124 215 213 387 25 47 79 140 119 205 77 122 289 486 341 583
16 30 35 62 43 70 13 13 216 15 1697 17 l1682 2 28 33 c96 110 174 166 263
187 63 15 196 12 252 -4z m-1373 -1417 c17 -6 57 -27 90 -47 174 -102 256
-253 242 -446 -9 -124 -49 -208 -141 -300 -84 -84 -195 -125 -337 -125 -139 0
-250 53 -341 164 -28 34 -56 64 -63 68 -16 10 -851 14 -890 5 -18 -5 -39 -21
-51 -40 -32 -48 -191 -322 -220 -379 -29 -58 -40 -29 105 -276 55 -95 101
-176 101 -181 0 -4 12 -18 26 -32 l26 -24 2101 0 c1156 0 2114 3 2128 7 14 4
31 19 37 33 34 74 158 159 271 185 33 8 88 11 142 8 75 -5 100 -11 164 -41 97
-47 170 -120 220 -221 32 -64 38 -87 42 -163 9 -151 -32 -258 -139 -366 -37
-37 -81 -69 -125 -90 -66 -31 -72 -32 -203 -32 -130 0 -137 1 -190 29 -78 41
-111 68 -164 136 l-47 60 -2250 0 -2250 0 -17 30 c-9 16 -20 30 -24 30 -5 0
-8 5 -8 11 0 8 -153 281 -190 339 -5 8 -35 60 -67 115 -71 123 -67 116 -128
217 -27 46 -59 103 -71 127 -27 54 -23 68 53 198 29 50 53 96 53 101 0 6 3 12
8 14 8 3 102 162 177 298 23 41 67 119 98 174 32 54 57 101 57 105 1 17 49 62
66 62 10 1 267 0 571 0 621 -1 602 -3 638 71 31 64 100 119 191 150 124 43
234 52 309 26z"/>
<path d="M5516 11672 c-2 -4 4 -9 15 -9 10 -1 19 2 19 8 0 11 -27 12 -34 1z"/>
</g>
</svg>
